<?xml version="1.0" encoding="UTF-8" standalone="no"?>
<svg
   xmlns:dc="http://purl.org/dc/elements/1.1/"
   xmlns:cc="http://creativecommons.org/ns#"
   xmlns:rdf="http://www.w3.org/1999/02/22-rdf-syntax-ns#"
   xmlns:svg="http://www.w3.org/2000/svg"
   xmlns="http://www.w3.org/2000/svg"
   xmlns:sodipodi="http://sodipodi.sourceforge.net/DTD/sodipodi-0.dtd"
   xmlns:inkscape="http://www.inkscape.org/namespaces/inkscape"
   width="240"
   height="240"
   viewBox="0 0 240 240"
   version="1.1"
   id="svg6"
   sodipodi:docname="suspend.svg"
   inkscape:version="1.0 (4035a4f, 2020-05-01)">
  <metadata
     id="metadata12">
    <rdf:RDF>
      <cc:Work
         rdf:about="">
        <dc:format>image/svg+xml</dc:format>
        <dc:type
           rdf:resource="http://purl.org/dc/dcmitype/StillImage" />
        <dc:title></dc:title>
      </cc:Work>
    </rdf:RDF>
  </metadata>
  <defs
     id="defs10" />
  <sodipodi:namedview
     inkscape:document-rotation="0"
     pagecolor="#2e265b"
     bordercolor="#666666"
     borderopacity="1"
     objecttolerance="10"
     gridtolerance="10"
     guidetolerance="10"
     inkscape:pageopacity="0"
     inkscape:pageshadow="2"
     inkscape:window-width="1321"
     inkscape:window-height="701"
     id="namedview8"
     showgrid="false"
     inkscape:pagecheckerboard="false"
     inkscape:zoom="2.125"
     inkscape:cx="111.76471"
     inkscape:cy="120"
     inkscape:window-x="45"
     inkscape:window-y="0"
     inkscape:window-maximized="0"
     inkscape:current-layer="system-suspend" />
  <g
     transform="matrix(9.0755427,0,0,9.0909072,-224.86846,-25.454503)"
     id="system-suspend">
    <path
       transform="matrix(0.11018625,0,0,0.11000002,24.777412,2.7999959)"
       d="M 107.90234,63.933594 A 77.901763,78.033647 0 0 0 30,141.9668 77.901763,78.033647 0 0 0 107.90234,220 77.901763,78.033647 0 0 0 185.80273,141.9668 77.901763,78.033647 0 0 0 107.90234,63.933594 Z M 69.849609,119.80273 a 3.8950868,3.901681 0 0 1 0.166016,0.002 3.8950868,3.901681 0 0 1 2.677734,1.17187 c 5.71703,5.89046 9.713301,7.31116 12.566407,7.03125 2.853105,-0.27992 5.802197,-2.46941 8.916015,-6.64062 a 3.8950868,3.901681 0 0 1 5.441407,-0.78125 3.8950868,3.901681 0 0 1 0.798832,5.45117 c -3.729254,4.99565 -8.334986,9.13592 -14.394536,9.73047 -6.059549,0.59451 -12.337432,-2.56571 -18.912109,-9.33985 a 3.8950868,3.901681 0 0 1 0.07031,-5.52148 3.8950868,3.901681 0 0 1 2.669921,-1.10352 z m 75.964841,0 a 3.8950868,3.901681 0 0 1 2.31836,0.78321 3.8950868,3.901681 0 0 1 0.7793,5.45117 c -3.72925,4.99565 -8.33303,9.13592 -14.39258,9.73047 -6.05955,0.59451 -12.33939,-2.56571 -18.91406,-9.33985 a 3.8950868,3.901681 0 0 1 0.0898,-5.52148 3.8950868,3.901681 0 0 1 2.81836,-1.10156 3.8950868,3.901681 0 0 1 2.67578,1.17187 c 5.71702,5.89046 9.71526,7.31116 12.56836,7.03125 2.85311,-0.27992 5.80221,-2.46941 8.91602,-6.64062 a 3.8950868,3.901681 0 0 1 3.14062,-1.56446 z"
       style="fill:#fffff6;fill-opacity:1;stroke:none;stroke-width:9.08322"
       id="path861" />
    <text
       xml:space="preserve"
       style="font-style:normal;font-variant:normal;font-weight:normal;font-stretch:normal;font-size:37.8354px;line-height:125%;font-family:'Kozuka Gothic Pro';-inkscape-font-specification:'Kozuka Gothic Pro';letter-spacing:0px;word-spacing:0px;fill:#ffffff;fill-opacity:1;stroke:none;stroke-width:0.19706px;stroke-linecap:butt;stroke-linejoin:miter;stroke-opacity:1"
       x="44.889042"
       y="14.275789"
       id="text897"><tspan
         sodipodi:role="line"
         id="tspan895"
         x="44.889042"
         y="14.275789"
         style="font-size:4.72943px;fill:#ffffff;fill-opacity:1;stroke-width:0.19706px"
         class="ColorScheme-Text">Z</tspan></text>
    <text
       xml:space="preserve"
       style="font-style:normal;font-variant:normal;font-weight:normal;font-stretch:normal;font-size:24.1552px;line-height:125%;font-family:'Kozuka Gothic Pro';-inkscape-font-specification:'Kozuka Gothic Pro';letter-spacing:0px;word-spacing:0px;fill:#ffffff;fill-opacity:1;stroke:none;stroke-width:0.125809px;stroke-linecap:butt;stroke-linejoin:miter;stroke-opacity:1"
       x="41.996819"
       y="7.201158"
       id="text897-6"><tspan
         sodipodi:role="line"
         id="tspan895-2"
         x="41.996819"
         y="7.201158"
         style="font-size:3.01941px;fill:#ffffff;fill-opacity:1;stroke-width:0.125809px"
         class="ColorScheme-Text">Z</tspan></text>
    <text
       xml:space="preserve"
       style="font-style:normal;font-variant:normal;font-weight:normal;font-stretch:normal;font-size:28.7153px;line-height:125%;font-family:'Kozuka Gothic Pro';-inkscape-font-specification:'Kozuka Gothic Pro';letter-spacing:0px;word-spacing:0px;fill:#ffffff;fill-opacity:1;stroke:none;stroke-width:0.149559px;stroke-linecap:butt;stroke-linejoin:miter;stroke-opacity:1"
       x="43.827366"
       y="10.096676"
       id="text897-9"><tspan
         sodipodi:role="line"
         id="tspan895-1"
         x="43.827366"
         y="10.096676"
         style="font-size:3.58941px;fill:#ffffff;fill-opacity:1;stroke-width:0.149559px"
         class="ColorScheme-Text">Z</tspan></text>
  </g>
</svg>
